HIERARCHY
ROOT Hips
{
	OFFSET 0.000000 0.000000 0.000000
	CHANNELS 6 Xposition Yposition Zposition Xrotation Yrotation Zrotation
	JOINT LeftUpLeg_virtual
	{
		OFFSET 0.000000 0.000000 0.000000
		CHANNELS 3 Xrotation Yrotation Zrotation
		JOINT LeftUpLeg
		{
			OFFSET 11.394100 -6.187798 -0.413800
			CHANNELS 3 Xrotation Yrotation Zrotation
			JOINT LeftLeg
			{
				OFFSET 0.430247 -32.302673 3.732800
				CHANNELS 3 Xrotation Yrotation Zrotation
				JOINT LeftFoot
				{
					OFFSET -0.430247 -48.264931 -6.423300
					CHANNELS 3 Xrotation Yrotation Zrotation
					JOINT LeftToeBase
					{
						OFFSET 4.230900 -16.068199 23.438400
						CHANNELS 3 Xrotation Yrotation Zrotation
						JOINT LeftToe_End
						{
							OFFSET 4.510700 0.695400 19.974600
							CHANNELS 3 Xrotation Yrotation Zrotation
							End Site
							{
								OFFSET 0 0 0
							}
						}
					}
				}
			}
		}
	}
	JOINT RightUpLeg_virtual
	{
		OFFSET 0.000000 0.000000 0.000000
		CHANNELS 3 Xrotation Yrotation Zrotation
		JOINT RightUpLeg
		{
			OFFSET -11.333700 -6.187798 -0.413800
			CHANNELS 3 Xrotation Yrotation Zrotation
			JOINT RightLeg
			{
				OFFSET -0.430392 -32.302628 3.733000
				CHANNELS 3 Xrotation Yrotation Zrotation
				JOINT RightFoot
				{
					OFFSET 0.430392 -48.264973 -6.423500
					CHANNELS 3 Xrotation Yrotation Zrotation
					JOINT RightToeBase
					{
						OFFSET -4.230900 -16.068199 23.438400
						CHANNELS 3 Xrotation Yrotation Zrotation
						JOINT RightToe_End
						{
							OFFSET -4.510700 0.695400 19.974600
							CHANNELS 3 Xrotation Yrotation Zrotation
							End Site
							{
								OFFSET 0 0 0
							}
						}
					}
				}
			}
		}
	}
	JOINT Spine_virtual
	{
		OFFSET 0.000000 0.000000 0.000000
		CHANNELS 3 Xrotation Yrotation Zrotation
		JOINT Spine
		{
			OFFSET -0.002400 12.777504 0.315300
			CHANNELS 3 Xrotation Yrotation Zrotation
			JOINT Spine1
			{
				OFFSET -0.002067 5.816869 0.032633
				CHANNELS 3 Xrotation Yrotation Zrotation
				JOINT Spine1_split
				{
					OFFSET -0.002067 5.816869 0.032633
					CHANNELS 3 Xrotation Yrotation Zrotation
					JOINT Spine2
					{
						OFFSET -0.002067 5.816869 0.032633
						CHANNELS 3 Xrotation Yrotation Zrotation
						JOINT Neck_virtual
						{
							OFFSET 0.000000 0.000000 0.000000
							CHANNELS 3 Xrotation Yrotation Zrotation
							JOINT Neck
							{
								OFFSET -0.003700 21.199493 -0.826900
								CHANNELS 3 Xrotation Yrotation Zrotation
								JOINT Head
								{
									OFFSET 0.000000 20.442200 4.834800
									CHANNELS 3 Xrotation Yrotation Zrotation
									JOINT HeadTop_End
									{
										OFFSET 0.000000 34.668396 4.968400
										CHANNELS 3 Xrotation Yrotation Zrotation
										End Site
										{
											OFFSET 0 0 0
										}
									}
								}
							}
						}
						JOINT LeftShoulder_virtual
						{
							OFFSET 0.000000 0.000000 0.000000
							CHANNELS 3 Xrotation Yrotation Zrotation
							JOINT LeftShoulder
							{
								OFFSET 3.288150 8.794197 -1.372250
								CHANNELS 3 Xrotation Yrotation Zrotation
								JOINT LeftShoulder_split
								{
									OFFSET 3.288150 8.794197 -1.372250
									CHANNELS 3 Xrotation Yrotation Zrotation
									JOINT LeftArm
									{
										OFFSET 11.953299 -2.279007 -0.146200
										CHANNELS 3 Xrotation Yrotation Zrotation
										JOINT LeftForeArm
										{
											OFFSET 18.448900 0.000000 0.000000
											CHANNELS 3 Xrotation Yrotation Zrotation
											JOINT LeftHand
											{
												OFFSET 29.527798 0.000000 0.000000
												CHANNELS 3 Xrotation Yrotation Zrotation
												End Site
												{
													OFFSET 0 0 0
												}
											}
										}
									}
								}
							}
						}
						JOINT RightShoulder_virtual
						{
							OFFSET 0.000000 0.000000 0.000000
							CHANNELS 3 Xrotation Yrotation Zrotation
							JOINT RightShoulder
							{
								OFFSET -3.249400 8.794197 -1.372250
								CHANNELS 3 Xrotation Yrotation Zrotation
								JOINT RightShoulder_split
								{
									OFFSET -3.249400 8.794197 -1.372250
									CHANNELS 3 Xrotation Yrotation Zrotation
									JOINT RightArm
									{
										OFFSET -11.953299 -2.279007 -0.146200
										CHANNELS 3 Xrotation Yrotation Zrotation
										JOINT RightForeArm
										{
											OFFSET -18.448900 0.000000 0.000000
											CHANNELS 3 Xrotation Yrotation Zrotation
											JOINT RightHand
											{
												OFFSET -29.527802 0.000000 0.000000
												CHANNELS 3 Xrotation Yrotation Zrotation
												End Site
												{
													OFFSET 0 0 0
												}
											}
										}
									}
								}
							}
						}
					}
				}
			}
		}
	}
}
MOTION
Frames: 6
Frame Time: 0.03333333
-1.407264 83.287285 0.869759 0.000000 0.000000 0.000000 7.173162 -59.148345 0.365314 -55.263764 -17.330854 30.261133 35.370483 -7.362232 -0.227850 25.081968 0.199796 -5.669381 -1.075252 0.052324 -2.786001 0.000000 0.000000 0.000000 7.173162 -59.148345 0.365314 -60.902085 0.168384 -15.754648 65.557891 0.342518 -0.099247 0.161586 -0.503611 9.688587 -10.353139 -0.000016 -0.000003 0.000000 0.000000 0.000000 7.173162 -59.148345 0.365314 4.907785 10.813766 0.446764 6.079588 5.798314 -0.521033 0.000000 0.000000 0.000000 0.000000 0.000000 0.000000 5.085130 16.136073 1.189174 6.289639 5.421249 -4.908954 -11.393626 17.889739 5.359089 0.000000 0.000000 0.000000 5.085130 16.136073 1.189174 3.544247 4.756017 -11.623023 0.000000 0.000000 0.000000 -54.038855 -33.116418 -50.381559 -0.000798 -81.882357 -0.000793 0.000000 0.000000 0.000000 5.085130 16.136073 1.189174 -14.733708 2.115973 -4.463090 0.000000 0.000000 0.000000 -107.662462 41.165970 127.346500 0.000018 29.080709 -0.000028 0.000000 0.000000 0.000000 
-1.960874 85.920181 -7.725880 0.000000 0.000000 0.000000 11.047608 -61.465275 2.801280 -63.995929 -16.602747 23.013257 50.598902 -2.279920 -0.005082 13.791110 -0.476138 -6.465968 -0.790457 -0.000007 -0.000001 0.000000 0.000000 0.000000 11.047608 -61.465275 2.801280 -62.242872 -6.414406 -9.344173 59.477984 -0.816275 -0.150809 5.971359 0.747046 6.743692 -9.252483 -0.000003 -0.000003 0.000000 0.000000 0.000000 11.047608 -61.465275 2.801280 5.053133 10.684753 1.241268 6.308408 5.733785 0.124731 0.000000 0.000000 0.000000 0.000000 0.000000 0.000000 5.204265 16.033850 1.859607 6.010204 5.497592 -4.746235 -12.496669 18.583678 4.459512 0.000000 0.000000 0.000000 5.204265 16.033850 1.859607 3.342834 3.885602 -11.068014 0.000000 0.000000 0.000000 -52.875797 -31.812405 -49.380605 -0.000180 -83.745359 -0.000176 0.000000 0.000000 0.000000 5.204265 16.033850 1.859607 -14.973895 4.793933 -4.441296 0.000000 0.000000 0.000000 -102.180764 44.066775 122.304318 0.000002 35.490032 -0.000008 0.000000 0.000000 0.000000 
-2.435488 89.031647 -16.487099 0.000000 0.000000 0.000000 18.243990 -65.223874 9.042228 -69.466569 -10.657065 17.180298 57.032903 -1.725867 0.035173 9.235027 -0.487030 -10.098095 -0.224709 -0.000003 0.000004 0.000000 0.000000 0.000000 18.243990 -65.223874 9.042228 -61.609529 -10.243503 -3.845327 52.633486 0.400026 -0.128958 5.093336 2.157258 16.170951 -4.721441 0.000008 0.000002 0.000000 0.000000 0.000000 18.243990 -65.223874 9.042228 4.960477 10.818810 0.802805 6.102150 6.417210 0.514765 0.000000 0.000000 0.000000 0.000000 0.000000 0.000000 4.918146 16.654296 2.295245 5.970361 5.433335 -4.378249 -13.661109 18.875861 3.950047 0.000000 0.000000 0.000000 4.918146 16.654296 2.295245 3.417889 3.714096 -11.398305 0.000000 0.000000 0.000000 -50.782354 -31.863577 -46.590281 0.000471 -85.111643 0.000453 0.000000 0.000000 0.000000 4.918146 16.654296 2.295245 -15.100657 8.148905 -3.712544 0.000000 0.000000 0.000000 -96.287123 45.640291 117.417181 0.000012 39.987530 -0.000019 0.000000 0.000000 0.000000 
-3.093477 91.136757 -24.797718 0.000000 0.000000 0.000000 25.916632 -69.496895 16.046160 -71.375859 -1.907789 14.275913 56.349955 -4.047453 -0.041592 12.093903 -0.984344 -17.124635 -1.882300 -0.249659 4.201071 0.000000 0.000000 0.000000 25.916632 -69.496895 16.046160 -58.891271 -10.648216 -1.184482 47.413660 -1.888767 -0.125880 5.440032 2.594220 22.149957 -2.040251 0.024622 -1.319112 0.000000 0.000000 0.000000 25.916632 -69.496895 16.046160 4.826150 11.731318 0.830329 5.938467 7.371494 0.634045 0.000000 0.000000 0.000000 0.000000 0.000000 0.000000 4.718941 17.582314 2.448575 6.178262 5.120958 -4.209298 -13.759385 18.080978 3.551955 0.000000 0.000000 0.000000 4.718941 17.582314 2.448575 3.616893 3.702326 -12.152608 0.000000 0.000000 0.000000 -50.517636 -32.346666 -45.002358 0.000720 -84.349203 0.000691 0.000000 0.000000 0.000000 4.718941 17.582314 2.448575 -15.231132 11.787424 -3.124260 0.000000 0.000000 0.000000 -92.063806 46.117099 113.129045 0.000010 41.336004 -0.000004 0.000000 0.000000 0.000000 
-4.189411 91.205620 -32.653751 0.000000 0.000000 0.000000 30.617361 -73.420046 19.608346 -70.403473 5.622130 10.725956 54.646127 -5.528575 -0.038421 11.297509 -2.087422 -18.149279 -3.646352 -0.461152 5.663516 0.000000 0.000000 0.000000 30.617361 -73.420046 19.608346 -58.079974 -10.360124 -1.235456 53.739109 -7.714856 -0.502305 1.848616 -0.977949 26.785364 -3.929140 0.156259 -3.305845 0.000000 0.000000 0.000000 30.617361 -73.420046 19.608346 4.568644 13.293466 2.686041 6.002000 7.941447 0.980752 0.000000 0.000000 0.000000 0.000000 0.000000 0.000000 4.701180 18.169879 2.813328 6.590860 4.714440 -4.493880 -12.566628 17.121133 2.048011 0.000000 0.000000 0.000000 4.701180 18.169879 2.813328 3.928015 3.896542 -13.253679 0.000000 0.000000 0.000000 -52.336987 -32.572250 -46.006126 -0.000197 -82.029172 -0.000192 0.000000 0.000000 0.000000 4.701180 18.169879 2.813328 -15.314905 15.159881 -3.231116 0.000000 0.000000 0.000000 -90.279501 46.659163 110.008488 0.000033 40.043022 -0.000022 0.000000 0.000000 0.000000 
-5.544941 89.920326 -40.368183 0.000000 0.000000 0.000000 33.123166 -76.707245 21.276550 -67.373027 8.810982 5.930286 52.279863 -5.321155 -0.102362 9.625234 -3.236420 -12.428333 -3.334591 0.000005 -0.000001 0.000000 0.000000 0.000000 33.123166 -76.707245 21.276550 -57.626511 -10.003774 -3.716734 63.590892 -8.914263 -0.695108 -2.020327 -6.514066 13.035665 -1.889326 -0.000006 0.000002 0.000000 0.000000 0.000000 33.123166 -76.707245 21.276550 4.225949 14.049040 4.470860 5.949867 8.183478 1.725802 0.000000 0.000000 0.000000 0.000000 0.000000 0.000000 4.503209 18.410502 3.592007 7.038407 4.510242 -4.978844 -11.147585 16.981978 0.159909 0.000000 0.000000 0.000000 4.503209 18.410502 3.592007 4.452933 4.765864 -14.888668 0.000000 0.000000 0.000000 -54.297740 -32.276534 -47.931365 -0.000124 -80.137831 -0.000129 0.000000 0.000000 0.000000 4.503209 18.410502 3.592007 -15.255661 18.362465 -3.596189 0.000000 0.000000 0.000000 -90.091705 47.839297 108.244695 0.000003 37.765154 0.000001 0.000000 0.000000 0.000000 
